<svg width="99" height="99" viewBox="0 0 99 99" fill="none" xmlns="http://www.w3.org/2000/svg">
<g id="cookies-svgrepo-com 1" clip-path="url(#clip0_4_2)">
<g id="cookie">
<path id="Vector" d="M92.7414 48.0227L88.0348 48.964C86.4686 49.2772 84.8944 48.4626 84.2457 47.003L79.2043 35.6593C78.7775 34.6989 77.9322 33.9889 76.9128 33.7339L74.2864 33.0774C72.7666 32.6975 71.7006 31.3321 71.7006 29.7655V11.5635C71.7006 10.7129 71.3829 9.89284 70.81 9.26404L64.4689 2.30581C58.7519 0.495383 52.5891 -0.312279 46.182 0.109631C21.5567 1.73192 1.60798 21.7639 0.105388 46.3966C-1.6478 75.141 21.145 99 49.5106 99C76.5661 99 98.5377 77.2906 98.9894 50.3429L94.9377 48.317C94.2586 47.9773 93.4858 47.8738 92.7414 48.0227Z" fill="#FFE6A1"/>
<g id="Group">
<path id="Vector_2" d="M64.8727 83.6378C64.5722 83.6378 64.2761 83.6206 63.977 83.6152C62.1014 85.7191 59.3785 87.0515 56.3382 87.0515C51.86 87.0515 48.0631 84.1724 46.6715 80.1683C40.5461 77.7442 35.0211 74.1377 30.3777 69.6231C29.6753 69.8348 28.9457 69.9826 28.1742 69.9826C23.9321 69.9826 20.4932 66.5437 20.4932 62.3015C20.4932 60.82 20.9325 59.4489 21.6592 58.2756C21.6071 58.1826 21.5516 58.0923 21.5 57.9989C16.172 57.6377 11.9589 53.2127 11.9589 47.793C11.9589 44.5989 13.4218 41.7478 15.7134 39.8695C15.4962 37.988 15.3727 36.078 15.3727 34.1378C15.3727 24.4023 18.1945 15.3313 23.0484 7.67578C9.20661 16.452 0.0106354 31.8973 0.0106354 49.5C0.0106354 76.8381 22.1725 99 49.5106 99C67.1133 99 82.5585 89.804 91.3349 75.9622C83.6794 80.8161 74.6083 83.6378 64.8727 83.6378Z" fill="#FFD796"/>
<path id="Vector_3" d="M38.4159 40.9655C40.7726 40.9655 42.6831 39.055 42.6831 36.6982C42.6831 34.3415 40.7726 32.431 38.4159 32.431C36.0591 32.431 34.1486 34.3415 34.1486 36.6982C34.1486 39.055 36.0591 40.9655 38.4159 40.9655Z" fill="#FFD796"/>
<path id="Vector_4" d="M83.6486 69.1293C86.0054 69.1293 87.9159 67.2187 87.9159 64.862C87.9159 62.5053 86.0054 60.5948 83.6486 60.5948C81.2919 60.5948 79.3814 62.5053 79.3814 64.862C79.3814 67.2187 81.2919 69.1293 83.6486 69.1293Z" fill="#FFD796"/>
<path id="Vector_5" d="M44.8167 69.1292C46.4663 69.1292 47.8037 67.7919 47.8037 66.1422C47.8037 64.4925 46.4663 63.1552 44.8167 63.1552C43.167 63.1552 41.8296 64.4925 41.8296 66.1422C41.8296 67.7919 43.167 69.1292 44.8167 69.1292Z" fill="#FFD796"/>
<path id="Vector_6" d="M67.8598 41.8188C69.5095 41.8188 70.8469 40.4815 70.8469 38.8318C70.8469 37.1821 69.5095 35.8448 67.8598 35.8448C66.2102 35.8448 64.8728 37.1821 64.8728 38.8318C64.8728 40.4815 66.2102 41.8188 67.8598 41.8188Z" fill="#FFD796"/>
<path id="Vector_7" d="M55.9116 15.362C57.5613 15.362 58.8986 14.0247 58.8986 12.375C58.8986 10.7253 57.5613 9.38797 55.9116 9.38797C54.2619 9.38797 52.9246 10.7253 52.9246 12.375C52.9246 14.0247 54.2619 15.362 55.9116 15.362Z" fill="#FFD796"/>
</g>
<g id="Group_2">
<path id="Vector_8" d="M47.0267 43.9672L45.0535 47.2561C43.874 49.2218 44.929 51.7683 47.1528 52.3242L53.0263 53.7926C54.8555 54.2499 56.709 53.1379 57.1661 51.3087L57.8381 48.621C57.974 48.0773 57.974 47.5088 57.8381 46.9651L57.1276 44.1233C56.6858 42.3554 54.9332 41.2463 53.1464 41.6036L49.2846 42.3759C48.3414 42.5648 47.5217 43.1425 47.0267 43.9672Z" fill="#ffc0cb"/>
<path id="Vector_9" d="M56.879 65.0989L54.8211 68.5287C53.798 70.2339 54.4431 72.4492 56.2216 73.3385L62.773 76.6142C64.7263 77.591 67.0818 76.5075 67.6116 74.3888L68.2864 71.6895L69.0751 68.5341C69.5661 66.5703 68.2501 64.613 66.2459 64.3266L60.2887 63.4754C58.9294 63.2813 57.5855 63.9211 56.879 65.0989Z" fill="#ffc0cb"/>
<path id="Vector_10" d="M20.9627 44.7352L18.4511 48.9213C17.6452 50.2645 17.8569 51.9839 18.9645 53.0916L22.9172 57.0445C24.3559 58.4833 26.7258 58.352 27.9969 56.7631L31.3855 52.5272C32.0511 51.6954 32.2901 50.6004 32.0315 49.5667L31.2587 46.4753C30.9387 45.1952 29.91 44.2145 28.6164 43.9556L24.5594 43.1443C23.1447 42.8612 21.705 43.4981 20.9627 44.7352Z" fill="#ffc0cb"/>
<path id="Vector_11" d="M34.861 17.0193L32.9243 20.2472C31.8007 22.1199 32.7002 24.5516 34.772 25.2423L38.9747 26.6432C40.2014 27.0519 41.5537 26.7327 42.4681 25.8185L44.7302 23.5564C45.5781 22.7085 45.919 21.4778 45.6282 20.3145L45.0365 17.948C44.6565 16.428 43.291 15.3618 41.7244 15.3618H37.788C36.5892 15.362 35.478 15.9912 34.861 17.0193Z" fill="#ffc0cb"/>
<path id="Vector_12" d="M76.09 43.4034L74.1141 45.3793C72.781 46.7123 72.781 48.8739 74.1141 50.2071L75.0811 51.1741C76.1202 52.2132 77.7073 52.4708 79.0217 51.8135L84.6131 49.0179C86.0442 48.3023 86.7865 46.6889 86.3984 45.1366L86.1451 44.1236C85.7033 42.3557 83.9507 41.2466 82.1638 41.604L77.8347 42.4698C77.1736 42.6017 76.5666 42.9267 76.09 43.4034Z" fill="#ffc0cb"/>
<path id="Vector_13" d="M63.3965 19.0374L61.1294 22.0604C60.2966 23.1706 60.2191 24.675 60.9331 25.8651L63.0309 29.3612C64.0337 31.0326 66.23 31.5265 67.8517 30.4454L72.1114 27.6055C73.7422 26.5185 74.1247 24.2846 72.9489 22.7168L70.6332 19.6293C70.2165 19.0737 69.6405 18.6584 68.9817 18.4389L67.2071 17.8473C65.813 17.3822 64.2781 17.8618 63.3965 19.0374Z" fill="#ffc0cb"/>
<path id="Vector_14" d="M34.1838 72.9709L31.9548 75.7573C30.5237 77.546 31.2258 80.2086 33.3527 81.0596L36.3469 82.2572C37.161 82.5828 38.0688 82.5828 38.8826 82.2572L42.2428 80.913C44.2561 80.1078 45.0183 77.6539 43.8156 75.8497L43.2384 74.984C42.9088 74.4896 42.4561 74.0901 41.9248 73.8242L38.3766 72.0502C36.9363 71.3303 35.1893 71.7141 34.1838 72.9709Z" fill="#ffc0cb"/>
</g>
<g id="Group_3">
<path id="Vector_15" d="M27.1531 56.639L23.2004 52.6864C22.0929 51.5788 21.8809 49.8592 22.6871 48.5162L25.1986 44.3301C25.4128 43.9732 25.6959 43.6833 26.009 43.4343L24.5595 43.1446C23.1449 42.8618 21.705 43.4987 20.9627 44.7356L18.4511 48.9216C17.6452 50.2649 17.8569 51.9843 18.9645 53.092L22.9171 57.0447C24.2507 58.3783 26.3734 58.3462 27.6902 57.0715C27.5015 56.9464 27.3197 56.8059 27.1531 56.639Z" fill="#ffc0cb"/>
<path id="Vector_16" d="M42.3937 25.4279L38.191 24.0272C36.1193 23.3365 35.2194 20.9048 36.3432 19.0322L38.2799 15.8042C38.3784 15.6399 38.5085 15.5047 38.6305 15.362H37.7878C36.5888 15.362 35.4776 15.9912 34.8606 17.0195L32.9239 20.2472C31.8001 22.1199 32.6996 24.5516 34.7716 25.2423L38.9743 26.6432C40.201 27.0519 41.5533 26.7327 42.4677 25.8185L42.7858 25.5004C42.6551 25.4733 42.5224 25.4708 42.3937 25.4279Z" fill="#ffc0cb"/>
<path id="Vector_17" d="M56.2653 52.8111L50.3918 51.3427C48.1678 50.7866 47.1128 48.2402 48.2925 46.2745L50.2657 42.9857C50.5006 42.5941 50.8127 42.2637 51.1726 41.9986L49.2846 42.3762C48.3416 42.5648 47.5215 43.1427 47.0267 43.9676L45.0535 47.2564C43.874 49.2221 44.929 51.7687 47.1528 52.3246L53.0263 53.7929C54.2636 54.1023 55.5011 53.6823 56.3208 52.8194C56.3022 52.8147 56.2838 52.8157 56.2653 52.8111Z" fill="#ffc0cb"/>
<path id="Vector_18" d="M66.2196 29.066L64.1218 25.5698C63.4078 24.3797 63.4853 22.8758 64.3181 21.7651L66.5852 18.7423C66.8335 18.4111 67.1417 18.1516 67.4759 17.9364L67.2069 17.8469C65.8128 17.3822 64.2779 17.8618 63.3962 19.0372L61.1292 22.06C60.2964 23.1704 60.2189 24.6746 60.933 25.8647L63.0307 29.3608C64.0302 31.0266 66.2146 31.5207 67.8345 30.4539C67.1854 30.1838 66.6108 29.7178 66.2196 29.066Z" fill="#ffc0cb"/>
<path id="Vector_19" d="M77.8208 50.9467C76.4876 49.6135 76.4876 47.4521 77.8208 46.1189L79.7967 44.143C80.2731 43.6665 80.8801 43.3415 81.5412 43.2094L85.1851 42.4807C84.4054 41.7397 83.2923 41.3779 82.1636 41.6038L77.8345 42.4696C77.1736 42.6019 76.5666 42.9267 76.09 43.4032L74.1141 45.3791C72.781 46.7123 72.781 48.8737 74.1141 50.2069L75.0811 51.1739C76.0558 52.1486 77.506 52.404 78.7675 51.8938L77.8208 50.9467Z" fill="#ffc0cb"/>
<path id="Vector_20" d="M60.4505 73.0521C58.672 72.1628 58.0268 69.9475 59.05 68.2423L61.1079 64.8127C61.3779 64.3631 61.7594 64.0222 62.1801 63.7459L60.2891 63.4758C58.9294 63.2815 57.5857 63.9211 56.8792 65.0989L54.8213 68.5287C53.7982 70.2339 54.4432 72.4492 56.2218 73.3385L62.7732 76.6142C64.0789 77.2671 65.5525 76.9852 66.552 76.1031L60.4505 73.0521Z" fill="#ffc0cb"/>
<path id="Vector_21" d="M39.7607 81.6866L36.7665 80.4889C34.6397 79.6383 33.9377 76.9754 35.3685 75.1866L37.5976 72.4003C37.7391 72.2234 37.898 72.0687 38.0659 71.9272C36.6919 71.401 35.1187 71.8021 34.1838 72.9709L31.9548 75.7572C30.5237 77.546 31.2258 80.2086 33.3527 81.0595L36.3469 82.2572C37.161 82.5828 38.0688 82.5828 38.8826 82.2572L40.077 81.7794C39.9712 81.7487 39.8635 81.7278 39.7607 81.6866Z" fill="#ffc0cb"/>
</g>
<path id="Vector_22" d="M13.6637 69.981C13.4079 69.981 13.1469 69.9228 12.9021 69.801C12.0587 69.3793 11.7168 68.3543 12.1387 67.5109L13.8457 64.0971C14.2676 63.2537 15.2901 62.9153 16.1358 63.3337C16.9793 63.7556 17.3211 64.7804 16.8992 65.6239L15.1923 69.0376C14.8931 69.6359 14.2906 69.981 13.6637 69.981Z" fill="#cbffc0"/>
<path id="Vector_23" d="M44.3899 92.1723H42.6829C41.7403 92.1723 40.976 91.4089 40.976 90.4653C40.976 89.5219 41.7403 88.7583 42.6829 88.7583H44.3899C45.3325 88.7583 46.0969 89.5217 46.0969 90.4653C46.0969 91.4089 45.3325 92.1723 44.3899 92.1723Z" fill="#ffc0cb"/>
<path id="Vector_24" d="M37.5606 59.7413C37.3048 59.7413 37.0438 59.6831 36.799 59.5612C35.9556 59.1393 35.6137 58.1143 36.0356 57.2711L37.7426 53.8573C38.1635 53.0156 39.1862 52.6755 40.0327 53.094C40.8762 53.5159 41.218 54.5407 40.7961 55.3841L39.0892 58.7979C38.79 59.3963 38.1873 59.7413 37.5606 59.7413Z" fill="#cbffc0"/>
<g id="Group_4">
<path id="Vector_25" d="M27.3194 32.431C27.0636 32.431 26.8025 32.3728 26.5577 32.251L23.144 30.544C22.3005 30.1221 21.9587 29.0973 22.3806 28.2539C22.8015 27.4122 23.825 27.0703 24.6707 27.4905L28.0845 29.1973C28.9279 29.6192 29.2698 30.644 28.8479 31.4874C28.5487 32.0859 27.946 32.431 27.3194 32.431Z" fill="#ffc0cb"/>
<path id="Vector_26" d="M47.8039 8.53431H44.3901C43.4475 8.53431 42.6831 7.77093 42.6831 6.82734C42.6831 5.88374 43.4475 5.12036 44.3901 5.12036H47.8039C48.7465 5.12036 49.5108 5.88374 49.5108 6.82734C49.5108 7.77093 48.7465 8.53431 47.8039 8.53431Z" fill="#ffc0cb"/>
</g>
<path id="Vector_27" d="M54.6331 34.1378C54.0062 34.1378 53.4037 33.7928 53.1046 33.1944L51.3976 29.7806C50.9757 28.9372 51.3176 27.912 52.161 27.4905C53.0062 27.0703 54.0304 27.4122 54.4512 28.2539L56.1581 31.6676C56.58 32.5111 56.2382 33.5362 55.3948 33.9578C55.1496 34.0796 54.8889 34.1378 54.6331 34.1378Z" fill="#cbffc0"/>
<g id="Group_5">
<path id="Vector_28" d="M7.78969 42.4959C7.56017 42.3828 7.35192 42.2152 7.18583 41.9976C6.61542 41.2466 6.76218 40.176 7.51338 39.6058L10.5534 37.2979C11.3038 36.7272 12.3737 36.8754 12.9452 37.6254C13.5156 38.3764 13.3689 39.447 12.6177 40.0173L9.57788 42.325C9.04478 42.7295 8.35178 42.7728 7.78969 42.4959Z" fill="#ffc0cb"/>
<path id="Vector_29" d="M71.7004 61.4482C71.2636 61.4482 70.8268 61.2816 70.4936 60.9482L67.0799 57.5345C66.4132 56.8678 66.4132 55.7875 67.0799 55.1208C67.7466 54.4541 68.8269 54.4541 69.4936 55.1208L72.9073 58.5345C73.574 59.2012 73.574 60.2815 72.9073 60.9482C72.5738 61.2816 72.137 61.4482 71.7004 61.4482Z" fill="#ffc0cb"/>
</g>
<path id="Vector_30" d="M75.1141 86.2516C74.6773 86.2516 74.2405 86.0849 73.9074 85.7516C73.2407 85.0849 73.2407 84.0046 73.9074 83.3379L75.6143 81.6309C76.2811 80.9642 77.3613 80.9642 78.028 81.6309C78.6948 82.2976 78.6948 83.3779 78.028 84.0446L76.3211 85.7516C75.9875 86.0849 75.5509 86.2516 75.1141 86.2516Z" fill="#cbffc0"/>
</g>
<g id="cookie-crumble">
<g id="Group_6">
<path id="Vector_31" d="M77.3439 8.47455V12.7811C77.3439 13.9888 78.5635 14.8144 79.6848 14.3658L84.8055 12.3176C85.4534 12.0583 85.8784 11.4306 85.8784 10.7328V8.47455C85.8784 7.53193 85.1141 6.76758 84.1715 6.76758H79.0507C78.1083 6.76758 77.3439 7.53193 77.3439 8.47455Z" fill="#FFE6A1"/>
<path id="Vector_32" d="M80.9932 21.9312L79.904 29.5561C79.6478 31.3497 80.8376 33.0312 82.614 33.3864L85.74 34.0115C87.0966 34.283 88.4826 33.7087 89.25 32.5577L90.4257 30.7942C91.0346 29.8806 91.1672 28.7299 90.7816 27.702L87.2205 18.2059C86.7776 17.0249 85.2626 16.6968 84.3706 17.5887L81.959 20.0001C81.4366 20.5224 81.0978 21.2001 80.9932 21.9312Z" fill="#FFE6A1"/>
</g>
<g id="Group_7">
<path id="Vector_33" d="M89.5505 30.9795L86.4245 30.3543C84.6479 29.9989 83.4584 28.3175 83.7146 26.5241L84.8037 18.8993C84.901 18.2193 85.2181 17.5982 85.6795 17.0928C85.2162 17.0694 84.7405 17.2185 84.3706 17.5882L81.9588 19.9998C81.4366 20.522 81.0976 21.1997 80.9934 21.9308L79.9042 29.5556C79.648 31.3494 80.8377 33.0306 82.6141 33.3858L85.7402 34.011C87.0966 34.2821 88.4828 33.7082 89.2502 32.5571L90.2787 31.0145C90.0366 31.0193 89.7943 31.0284 89.5505 30.9795Z" fill="#FFD796"/>
<path id="Vector_34" d="M83.0985 10.9519C81.9772 11.4003 80.7577 10.5746 80.7577 9.3671V6.76758H79.0507C78.1081 6.76758 77.3438 7.53193 77.3438 8.47455V12.7811C77.3438 13.9888 78.5633 14.8144 79.6846 14.3658L84.8053 12.3176C85.4532 12.0583 85.8782 11.4308 85.8782 10.7328V9.84006L83.0985 10.9519Z" fill="#FFD796"/>
<path id="Vector_35" d="M90.1432 38.8732L89.1342 40.8911C88.8941 41.3716 88.8941 41.9371 89.1342 42.4176L89.5946 43.3388C90.0539 44.2571 91.2138 44.5653 92.0681 43.9958L94.8198 42.1614C95.2947 41.8447 95.5799 41.3118 95.5799 40.7412V38.9022C95.5799 37.7372 94.4385 36.9144 93.3332 37.283L91.1299 38.0174C90.7006 38.1602 90.3456 38.4681 90.1432 38.8732Z" fill="#FFD796"/>
</g>
</g>
</g>
<defs>
<clipPath id="clip0_4_2">
<rect width="99" height="99" fill="white"/>
</clipPath>
</defs>
</svg>
